# xmcd CD database file
#
# Track frame offsets:
#	150
#	9365
#	28677
#	50395
#	70082
#	91262
#	113930
#	123440
#	147747
#	168512
#	189555
#	213420
#	235305
#	273527
#
# Disc length: 4440 seconds
#
# Revision: 0
# Processed by: cddbd v1.5.1PL0 Copyright (c) Steve Scherf et al.
# Submitted via: CDex 1.51
#
DISCID=ca11560e
DTITLE=Ruppina - in the name of love
DYEAR=2004
DGENRE=JPop
TTITLE0=Nobody replies
TTITLE1=Proudly -Album Version-
TTITLE2=violet flow
TTITLE3=Alone
TTITLE4=Thousand Lights -Album Version-
TTITLE5=Why?
TTITLE6=The reason to be
TTITLE7=One
TTITLE8=If〜もしもあの時、あの場所で〜
TTITLE9=brand-new days
TTITLE10=You
TTITLE11=Free Will -Album Version-
TTITLE12=in the name of love
TTITLE13=data
EXTD=YEAR: 2004/08/25
EXTT0=
EXTT1=
EXTT2=
EXTT3=
EXTT4=
EXTT5=
EXTT6=
EXTT7=
EXTT8=
EXTT9=
EXTT10=
EXTT11=
EXTT12=
EXTT13=
PLAYORDER=
